Coordinates
version=1
nRows=14
nColumns=40
inDegrees=yes

Units are S.I. units (second, meters, Newtons, ...)
Angles are in degrees.

endheader
time	pelvis_tilt	pelvis_list	pelvis_rotation	pelvis_tx	pelvis_ty	pelvis_tz	hip_flexion_r	hip_adduction_r	hip_rotation_r	knee_angle_r	knee_angle_r_beta	ankle_angle_r	subtalar_angle_r	mtp_angle_r	hip_flexion_l	hip_adduction_l	hip_rotation_l	knee_angle_l	knee_angle_l_beta	ankle_angle_l	subtalar_angle_l	mtp_angle_l	lumbar_extension	lumbar_bending	lumbar_rotation	arm_flex_r	arm_add_r	arm_rot_r	elbow_flex_r	pro_sup_r	wrist_flex_r	wrist_dev_r	arm_flex_l	arm_add_l	arm_rot_l	elbow_flex_l	pro_sup_l	wrist_flex_l	wrist_dev_l
     13.61828571	     -3.75740700	     -5.58967600	      4.50245028	      0.89551046	      0.93093579	      0.45975362	      7.78501643	      5.57951379	    -16.53699135	     12.28937992	     12.28937992	     11.18875884	      0.18830717	     -3.23768137	     37.86795604	     -9.88174483	      2.03972262	     47.79867750	     47.79867750	      5.95772393	    -18.02987412	     11.65638332	     -9.95748351	      6.12525835	      2.83854235	     28.94307902	    -20.10868693	      4.67100935	     75.57693835	     44.73160534	      0.00000000	      0.00000000	    -11.25819929	     -7.90949625	     -9.53438132	     28.42045202	     46.26386231	      0.00000000	      0.00000000
     13.63157143	     -3.89103756	     -5.48955082	      4.65895532	      0.89404090	      0.93066785	      0.45939092	      7.35498852	      5.49210267	    -16.67377400	     12.09437832	     12.09437832	     11.49068705	      0.39145072	     -3.26908233	     37.76909654	     -9.36082928	      1.63479209	     43.10943790	     43.10943790	      6.35995076	    -17.46702399	     11.86867605	     -9.99090850	      6.18500340	      2.93751077	     29.90452021	    -19.72080414	      4.62827119	     76.42439672	     44.71559091	      0.00000000	      0.00000000	    -11.37056701	     -7.62502994	     -9.45126514	     28.90119214	     46.24390214	      0.00000000	      0.00000000
     13.64485714	     -4.08175392	     -5.42938610	      4.81185122	      0.89266129	      0.93010727	      0.45895432	      7.02986755	      5.43348901	    -16.78276213	     11.98468648	     11.98468648	     11.82971606	      0.50230935	     -3.34089344	     37.65228982	     -8.87029653	      1.25920727	     38.46947837	     38.46947837	      6.77576413	    -16.32180765	     12.01225234	     -9.91417501	      6.27002854	      3.08805552	     30.80115274	    -19.39151970	      4.61133747	     77.10130631	     44.70236004	      0.00000000	      0.00000000	    -11.37468048	     -7.32898670	     -9.36618723	     29.34906140	     46.22652999	      0.00000000	      0.00000000
     13.65814286	     -4.22426086	     -5.39614856	      4.96217502	      0.89142467	      0.92951061	      0.45840249	      6.67733248	      5.39038332	    -16.90107853	     11.94367054	     11.94367054	     12.17505080	      0.60414609	     -3.41950906	     37.36977052	     -8.39083208	      0.94239136	     33.90678632	     33.90678632	      7.19128315	    -14.74107489	     12.09399743	     -9.87085943	      6.38144202	      3.17437888	     31.61201420	    -19.01214752	      4.62760468	     77.73785286	     44.68871978	      0.00000000	      0.00000000	    -11.33645140	     -7.05211198	     -9.27095102	     29.83690720	     46.20874819	      0.00000000	      0.00000000
     13.67142857	     -4.17677732	     -5.39346178	      5.08675759	      0.89053808	      0.92899503	      0.45785537	      6.09594072	      5.36410998	    -17.29631962	     11.94131648	     11.94131648	     12.78226471	      1.24757467	     -3.30313767	     36.81792791	     -8.05189161	      0.46752813	     29.58789009	     29.58789009	      7.18184888	    -12.71876712	     11.03019966	    -10.05858875	      6.53421468	      3.04615335	     32.39715872	    -18.35258104	      4.70796910	     78.68226789	     44.67675824	      0.00000000	      0.00000000	    -11.84855890	     -6.91015213	     -8.98273539	     31.39851000	     46.14803710	      0.00000000	      0.00000000
     13.68471429	     -4.31956477	     -5.34108420	      5.22228804	      0.88966192	      0.92818811	      0.45715387	      5.75460029	      5.30249742	    -17.24657594	     11.96769897	     11.96769897	     13.17671700	      1.14914488	     -3.36827214	     36.47532833	     -7.58241369	      0.14649689	     25.71743415	     25.71743415	      7.54731342	    -10.71482537	     11.24782995	     -9.94677337	      6.57831863	      3.15424253	     32.91284513	    -18.01322216	      4.81773786	     78.98381267	     44.67032952	      0.00000000	      0.00000000	    -11.65226826	     -6.69265691	     -8.83041155	     31.83159377	     46.12713443	      0.00000000	      0.00000000
     13.69800000	     -4.26495595	     -5.39219545	      5.31680382	      0.88915584	      0.92749323	      0.45661265	      5.15963091	      5.37725610	    -17.33408235	     11.97255899	     11.97255899	     13.75505473	      1.37209466	     -3.09185425	     36.07351026	     -7.41879224	     -0.60605863	     22.62526753	     22.62526753	      7.97252081	     -8.07018080	     11.07569409	    -10.03598049	      6.72441153	      3.05864570	     33.49877866	    -17.37163031	      5.09105058	     79.32184213	     44.67700871	      0.00000000	      0.00000000	    -11.96393973	     -6.66620816	     -8.21418689	     33.24527160	     46.03262408	      0.00000000	      0.00000000
     13.71128571	     -4.24690424	     -5.37850238	      5.39557416	      0.88877036	      0.92676163	      0.45596073	      4.62303959	      5.37673033	    -17.26386265	     12.03381303	     12.03381303	     14.23857982	      1.33460555	     -3.12048127	     35.69889745	     -7.11279188	     -1.04154260	     20.08269521	     20.08269521	      8.28120608	     -6.34702368	     11.43806882	    -10.05432355	      6.77572156	      3.09613471	     33.86150409	    -16.89107855	      5.27807640	     79.56059402	     44.67396658	      0.00000000	      0.00000000	    -11.75189046	     -6.57890038	     -7.93200656	     33.74533980	     45.99797859	      0.00000000	      0.00000000
     13.72457143	     -4.26778238	     -5.35161707	      5.43478753	      0.88863131	      0.92596185	      0.45529259	      4.07868939	      5.36954679	    -17.19954254	     12.02662766	     12.02662766	     14.70634188	      1.33257484	     -3.14560224	     35.44826603	     -6.85352942	     -1.58102200	     18.30274982	     18.30274982	      8.51117249	     -4.95934056	     11.68554526	     -9.97547484	      6.76970499	      3.12143639	     34.02983995	    -16.41835786	      5.46291757	     79.76628359	     44.66862066	      0.00000000	      0.00000000	    -11.54618103	     -6.53065982	     -7.72299741	     34.20834544	     45.97327153	      0.00000000	      0.00000000
     13.73785714	     -4.29400675	     -5.35523369	      5.44364352	      0.88872997	      0.92510165	      0.45467635	      3.52180699	      5.39955493	    -17.12125044	     12.01337678	     12.01337678	     15.17324301	      1.38285691	     -3.16172296	     35.25536065	     -6.68568075	     -2.08145402	     17.24235423	     17.24235423	      8.69926040	     -4.05069271	     11.78684012	     -9.86175634	      6.75659156	      3.15894587	     34.06451945	    -15.94826695	      5.65587622	     79.93181424	     44.66228713	      0.00000000	      0.00000000	    -11.29445127	     -6.50140512	     -7.54977269	     34.67059341	     45.95514767	      0.00000000	      0.00000000
     13.75114286	     -4.27288088	     -5.37391463	      5.40479267	      0.88915098	      0.92420343	      0.45416983	      2.88012213	      5.44714625	    -17.07046769	     12.00678291	     12.00678291	     15.89542400	      1.66261512	     -2.55700357	     35.12082735	     -6.67175236	     -2.78567656	     17.00024785	     17.00024785	      8.70417160	     -3.31281118	     11.20981965	     -9.77388503	      6.72205795	      3.14477508	     33.97204560	    -15.43430438	      5.97084891	     80.11667385	     44.68026241	      0.00000000	      0.00000000	    -11.56889607	     -6.74044301	     -6.62708904	     36.41315636	     45.84289512	      0.00000000	      0.00000000
     13.76442857	     -4.35942160	     -5.34531875	      5.33670401	      0.88974288	      0.92310913	      0.45361239	      2.35214260	      5.43857627	    -16.91462006	     11.99857560	     11.99857560	     16.37600323	      1.68611713	     -2.67252629	     34.99988640	     -6.57455594	     -3.05902643	     17.14263757	     17.14263757	      8.61085123	     -3.55332245	     11.17785247	     -9.50772170	      6.61306521	      3.22065050	     33.69933109	    -15.03590012	      6.16774145	     80.12249794	     44.67382973	      0.00000000	      0.00000000	    -11.17367321	     -6.76109566	     -6.59105943	     36.60304127	     45.84477867	      0.00000000	      0.00000000
     13.77771429	     -4.37576683	     -5.24509020	      5.17661937	      0.89071408	      0.92202711	      0.45313276	      1.68815723	      5.36181863	    -16.70683232	     11.94501634	     11.94501634	     16.88558196	      1.78885539	     -2.72106325	     34.74471618	     -6.51080773	     -3.33012248	     17.74225195	     17.74225195	      8.36502379	     -4.19105381	     10.94667416	     -9.30611781	      6.37233117	      3.34559723	     33.19194734	    -14.58230539	      6.42155309	     80.13655667	     44.66578802	      0.00000000	      0.00000000	    -10.86690520	     -6.87085047	     -6.55955331	     36.88456551	     45.84670159	      0.00000000	      0.00000000
     13.79100000	     -4.39532012	     -5.23045927	      4.98209554	      0.89198250	      0.92069299	      0.45270397	      0.99881322	      5.37817752	    -16.49326220	     11.86799605	     11.86799605	     17.44321600	      1.97729046	     -2.68215757	     34.50970769	     -6.56056086	     -3.30542113	     18.73478606	     18.73478606	      7.86557113	     -5.31234396	     10.42615485	     -9.05521593	      6.18415071	      3.46219627	     32.57843945	    -14.28286290	      6.64997932	     80.21761000	     44.65790391	      0.00000000	      0.00000000	    -10.63027701	     -7.00815150	     -6.54574418	     37.36991090	     45.85093309	      0.00000000	      0.00000000
